<svg width="0" height="0" xmlns="http://www.w3.org/2000/svg">
    <symbol class='icon-moon' id="moonIcon" viewBox="0 0 16 16">
        <!-- <path
            fill-rule="evenodd" clip-rule="evenodd"
            d="M305.6 178.053c-3.2-.8-6.4 0-9.2 2-10.4 8.8-22.4 16-35.6 20.8-12.4 4.8-26 7.2-40.4 7.2-32.4
        0-62-13.2-83.2-34.4-21.2-21.2-34.4-50.8-34.4-83.2 0-13.6 2.4-26.8 6.4-38.8 4.4-12.8
        10.8-24.4 19.2-34.4 3.6-4.4 2.8-10.8-1.6-14.4-2.8-2-6-2.8-9.2-2-34 9.2-63.6 29.6-84.8
        56.8-20.4 26.8-32.8 60-32.8 96.4 0 43.6 17.6 83.2 46.4 112s68.4 46.4 112 46.4c36.8 0
        70.8-12.8 98-34 27.6-21.6 47.6-52.4 56-87.6 2-6-1.2-11.6-6.8-12.8zm-61.2 83.6c-23.2
        18.4-52.8 29.6-85.2 29.6-38 0-72.4-15.6-97.2-40.4-24.8-24.8-40.4-59.2-40.4-97.2 0-31.6
        10.4-60.4 28.4-83.6 12.4-16 28-29.2 46-38.4-2 4.4-4 8.8-5.6 13.6-5.2 14.4-7.6 29.6-7.6 45.6
        0 38 15.6 72.8 40.4 97.6s59.6 40.4 97.6 40.4c16.8 0 32.8-2.8 47.6-8.4 5.2-2 10.4-4
        15.2-6.4-9.6 18.4-22.8 34.8-39.2 47.6z"
            fill="currentColor"
        /> -->

        <!-- <path
            fill-rule="evenodd"
            clip-rule="evenodd"
            d="M11.7803 5.84099C11.4874 6.13388 11.0126 6.13388 10.7197 5.84099L8.75 3.87132L8.75 11.25C8.75
        11.6642 8.41421 12 8 12C7.58579 12 7.25 11.6642 7.25 11.25L7.25 3.87132L5.28033
        5.84099C4.98744 6.13388 4.51256 6.13388 4.21967 5.84099C3.92678 5.5481 3.92678 5.07322
        4.21967 4.78033L7.46967 1.53033L8 1L8.53033 1.53033L11.7803 4.78033C12.0732 5.07322 12.0732
        5.5481 11.7803 5.84099ZM2.5 9.75C2.5 9.33579 2.16421 9 1.75 9C1.33579 9 1 9.33579 1 9.75L1
        13C1 14.1046 1.89543 15 3 15L13 15C14.1046 15 15 14.1046 15 13V9.75C15 9.33579 14.6642 9
        14.25 9C13.8358 9 13.5 9.33579 13.5 9.75V13C13.5 13.2761 13.2761 13.5 13 13.5L3 13.5C2.72386
        13.5 2.5 13.2761 2.5 13L2.5 9.75Z"
            fill="currentColor"
        /> -->
    </symbol>

    <symbol id="sunIcon" viewBox="0 0 24 24">
        <path
            fill-rule="evenodd" clip-rule="evenodd"
            d="M204.8 97.6C191.2 84 172 75.2 151.2 75.2s-40 8.4-53.6 22.4c-13.6 13.6-22.4 32.8-22.4 53.6s8.8 40 22.4 53.6c13.6 13.6 32.8 22.4 53.6 22.4s40-8.4 53.6-22.4c13.6-13.6 22.4-32.8 22.4-53.6s-8.4-40-22.4-53.6zm-14.4 92.8c-10 10-24 16-39.2 16s-29.2-6-39.2-16-16-24-16-39.2 6-29.2 16-39.2 24-16 39.2-16 29.2 6 39.2 16 16 24 16 39.2-6 29.2-16 39.2zM292 140.8h-30.8c-5.6 0-10.4 4.8-10.4 10.4 0 5.6 4.8 10.4 10.4 10.4H292c5.6 0 10.4-4.8 10.4-10.4 0-5.6-4.8-10.4-10.4-10.4zM151.2 250.8c-5.6 0-10.4 4.8-10.4 10.4V292c0 5.6 4.8 10.4 10.4 10.4 5.6 0 10.4-4.8 10.4-10.4v-30.8c0-5.6-4.8-10.4-10.4-10.4zM258 243.6l-22-22c-3.6-4-10.4-4-14.4 0s-4 10.4 0 14.4l22 22c4 4 10.4 4 14.4 0s4-10.4 0-14.4zM151.2 0c-5.6 0-10.4 4.8-10.4 10.4v30.8c0 5.6 4.8 10.4 10.4 10.4 5.6 0 10.4-4.8 10.4-10.4V10.4c0-5.6-4.8-10.4-10.4-10.4zM258.4 44.4c-4-4-10.4-4-14.4 0l-22 22c-4 4-4 10.4 0 14.4 3.6 4 10.4 4 14.4 0l22-22c4-4 4-10.4 0-14.4zM41.2 140.8H10.4c-5.6 0-10.4 4.8-10.4 10.4s4.4 10.4 10.4 10.4h30.8c5.6 0 10.4-4.8 10.4-10.4 0-5.6-4.8-10.4-10.4-10.4zM80.4 221.6c-3.6-4-10.4-4-14.4 0l-22 22c-4 4-4 10.4 0 14.4s10.4 4 14.4 0l22-22c4-4 4-10.4 0-14.4zM80.4 66.4l-22-22c-4-4-10.4-4-14.4 0s-4 10.4 0 14.4l22 22c4 4 10.4 4 14.4 0s4-10.4 0-14.4z"
            fill="currentColor" class="icon-sun">
        </path>
    </symbol>

    <symbol id="searchIcon" viewBox="0 0 24 24">
        <path
            fill-rule="evenodd" clip-rule="evenodd"
            d="M606.209 578.714 448.198 423.228C489.576 378.272 515 318.817 515 253.393 514.98 113.439 399.704 0 257.493 0S.006 113.439.006 253.393s115.276 253.393 257.487 253.393c61.445 0 117.801-21.253 162.068-56.586l158.624 156.099c7.729 7.614 20.277 7.614 28.006 0a19.291 19.291 0 0 0 .018-27.585zM257.493 467.8c-120.326 0-217.869-95.993-217.869-214.407S137.167 38.986 257.493 38.986c120.327 0 217.869 95.993 217.869 214.407S377.82 467.8 257.493 467.8z"
            fill="currentColor" class="icon-search">
        </path>
    </symbol>

    <symbol id="playIcon" viewBox="0 0 24 24">
        <path
            fill-rule="evenodd" clip-rule="evenodd"
            d="M34.857 3.613C20.084-4.861 8.107 2.081 8.107 19.106v125.637c0 17.042 11.977 23.975 26.75 15.509L144.67 97.275c14.778-8.477 14.778-22.211 0-30.686L34.857 3.613z"
            fill="currentColor" class="icon-play">
        </path>
    </symbol>

    <symbol id="arrowIcon" viewBox="0 0 24 24">
        <path
            fill-rule="evenodd" clip-rule="evenodd"
            d="M12 16a1 1 0 0 1-.71-.29l-6-6a1 1 0 0 1 1.42-1.42l5.29 5.3 5.29-5.29a1 1 0 0 1 1.41 1.41l-6 6a1 1 0 0 1-.7.29z"
            data-name="16" fill="currentColor" class="icon-arrow">
        </path>
    </symbol>


    <symbol id="bookIcon" viewBox="0 0 24 24">
        <path
            fill-rule="evenodd" clip-rule="evenodd"
            d="M57 8h-1v-.75a3.965 3.965 0 0 0-1.367-3.014C52.792 2.654 48.7 0 42 0c-4.007 0-9.283 1.251-12 3.586C27.283 1.251 22.007 0 18 0 11.3 0 7.208 2.654 5.366 4.237A3.963 3.963 0 0 0 4 7.25V8H3a3 3 0 0 0-3 3v42a3 3 0 0 0 3 3h22.1a5 5 0 0 0 9.8 0H57a3 3 0 0 0 3-3V11a3 3 0 0 0-3-3ZM42 2c6.057 0 9.7 2.352 11.329 3.753A1.963 1.963 0 0 1 54 7.25v42.27a.481.481 0 0 1-.48.48.416.416 0 0 1-.229-.071l-.093-.064A18.608 18.608 0 0 0 42 46c-3.561 0-8.122.99-11 2.849V5.4C32.862 3.5 37.665 2 42 2Zm7.686 48H33.024A21.22 21.22 0 0 1 42 48a15.426 15.426 0 0 1 7.686 2ZM6 7.25a1.962 1.962 0 0 1 .67-1.5C8.3 4.352 11.943 2 18 2c4.335 0 9.138 1.5 11 3.4v43.449C26.122 46.99 21.561 46 18 46a18.608 18.608 0 0 0-11.2 3.865l-.084.058A.428.428 0 0 1 6.48 50a.481.481 0 0 1-.48-.48ZM26.976 50H10.314A15.426 15.426 0 0 1 18 48a21.22 21.22 0 0 1 8.976 2ZM58 53a1 1 0 0 1-1 1H34a1 1 0 0 0-1 1 3 3 0 0 1-6 0 1 1 0 0 0-1-1H3a1 1 0 0 1-1-1V11a1 1 0 0 1 1-1h1v39.52A2.482 2.482 0 0 0 6.48 52h47.04A2.482 2.482 0 0 0 56 49.52V10h1a1 1 0 0 1 1 1Z"
            fill="#000000" data-original="#000000" class=""></path>
    </symbol>
</svg>