<svg width="24" height="24" viewBox="0 0 24 24" fill="none" xmlns="http://www.w3.org/2000/svg">
<path d="M15.3488 24H8.65116C2.58977 24 0 21.4102 0 15.3488V8.65116C0 2.58977 2.58977 0 8.65116 0H15.3488C21.4102 0 24 2.58977 24 8.65116V15.3488C24 21.4102 21.4102 24 15.3488 24ZM8.65116 1.67442C3.50512 1.67442 1.67442 3.50512 1.67442 8.65116V15.3488C1.67442 20.4949 3.50512 22.3256 8.65116 22.3256H15.3488C20.4949 22.3256 22.3256 20.4949 22.3256 15.3488V8.65116C22.3256 3.50512 20.4949 1.67442 15.3488 1.67442H8.65116Z" fill="currentColor"/>
<path d="M12.0001 19.7582C11.7322 19.7582 11.4643 19.6913 11.241 19.5685C9.94615 18.8652 7.65782 18.1061 6.21782 17.9164L6.00572 17.8829C4.91177 17.7489 4.04106 16.7666 4.04106 15.6392V7.04381C4.04106 6.40753 4.30899 5.79358 4.76667 5.36939C5.2355 4.9452 5.83827 4.73312 6.48571 4.78894C8.11548 4.92289 10.482 5.70429 11.8773 6.57498L11.9889 6.64196L12.0337 6.60847C13.4402 5.72661 15.8066 4.93405 17.4476 4.78894H17.5592C18.1396 4.73312 18.7648 4.95637 19.2224 5.36939C19.6913 5.79358 19.948 6.38519 19.948 7.03263V15.6168C19.948 16.7331 19.0773 17.7154 17.9722 17.8606L17.7378 17.8941C16.3089 18.0838 14.0094 18.8429 12.7369 19.5461C12.5248 19.7024 12.268 19.7582 12.0001 19.7582ZM6.29597 6.4745C6.13969 6.4745 6.00569 6.53031 5.90523 6.61961C5.78243 6.73124 5.72665 6.88754 5.72665 7.05498V15.6503C5.72665 15.9182 5.97225 16.1973 6.22899 16.2308L6.44108 16.2643C8.07085 16.4875 10.5713 17.3024 12.0224 18.095C13.3731 17.3136 15.8848 16.4764 17.5257 16.2643L17.7713 16.2308C18.028 16.1973 18.2736 15.9182 18.2736 15.6503V7.06611C18.2736 6.88751 18.2066 6.74241 18.095 6.63079C17.9722 6.51916 17.8159 6.47451 17.6373 6.48567C17.615 6.48567 17.548 6.48567 17.5257 6.48567C16.2308 6.5973 14.0987 7.3117 12.9378 8.04845L12.8262 8.11543C12.335 8.41682 11.6429 8.41683 11.1741 8.1266L11.0066 8.02613C9.83453 7.28939 7.70246 6.58612 6.35176 6.4745C6.32943 6.4745 6.31829 6.4745 6.29597 6.4745Z" fill="currentColor"/>
<path d="M12 19.1554C11.5423 19.1554 11.1628 18.7759 11.1628 18.3182V7.6466C11.1628 7.18892 11.5423 6.80939 12 6.80939C12.4577 6.80939 12.8372 7.18892 12.8372 7.6466V18.3182C12.8372 18.7871 12.4577 19.1554 12 19.1554Z" fill="currentColor"/>
</svg>
